<?xml version="1.0" standalone="no"?>
<!DOCTYPE svg PUBLIC "-//W3C//DTD SVG 20010904//EN"
 "http://www.w3.org/TR/2001/REC-SVG-20010904/DTD/svg10.dtd">
<svg version="1.0" xmlns="http://www.w3.org/2000/svg"
 width="512.000000pt" height="512.000000pt" viewBox="0 0 512.000000 512.000000"
 preserveAspectRatio="xMidYMid meet">
<metadata>
Created by potrace 1.15, written by Peter Selinger 2001-2017
</metadata>
<g transform="translate(0.000000,512.000000) scale(0.100000,-0.100000)"
fill="#000000" stroke="none">
<path d="M2835 5093 c-16 -9 -55 -35 -85 -59 -121 -94 -252 -137 -471 -155
-147 -12 -421 0 -589 26 -52 8 -117 15 -145 15 -119 0 -205 -86 -205 -205 0
-98 52 -166 148 -195 172 -50 556 -80 799 -62 229 17 375 50 525 119 l77 36
93 -88 c247 -233 548 -387 858 -439 47 -8 144 -17 216 -21 l131 -7 -10 -42
c-6 -22 -11 -142 -11 -266 -1 -215 0 -230 27 -333 68 -260 164 -441 339 -637
l84 -95 -49 -107 c-59 -131 -102 -277 -124 -418 -21 -142 -13 -457 16 -617 54
-303 103 -387 238 -409 99 -15 202 57 222 157 11 56 7 88 -45 309 -27 112 -27
496 0 595 31 115 88 236 162 341 l69 99 3 85 c4 106 -7 124 -115 212 -202 162
-315 324 -377 538 -68 238 -53 447 48 667 67 147 77 212 41 283 -47 92 -148
119 -320 84 -119 -25 -395 -25 -500 0 -309 72 -519 207 -745 480 -50 60 -86
94 -114 107 -52 23 -149 25 -191 2z"/>
<path d="M2340 3921 c-48 -10 -70 -23 -148 -89 -120 -100 -202 -179 -201 -193
0 -16 48 -55 249 -201 204 -148 194 -142 223 -126 56 29 185 151 211 197 22
42 26 61 26 132 -1 125 -49 213 -143 258 -47 23 -161 34 -217 22z"/>
<path d="M1101 3720 c-58 -12 -158 -60 -199 -95 -47 -39 -256 -282 -413 -480
-245 -308 -282 -364 -314 -480 -21 -78 -34 -386 -35 -830 0 -304 -2 -349 -20
-423 -18 -75 -53 -159 -90 -219 -24 -38 -68 14 609 -728 378 -415 418 -455
456 -455 21 0 67 22 141 67 167 101 251 137 619 258 443 146 626 225 905 387
158 92 390 251 390 267 0 9 -27 31 -61 49 -78 43 -129 90 -185 168 -68 96
-106 185 -112 264 -4 61 -1 75 27 135 17 37 28 71 25 76 -3 5 -18 9 -33 9 -50
0 -134 52 -217 135 -65 64 -86 92 -104 140 -30 83 -25 195 13 279 42 92 35 97
-46 36 -69 -52 -115 -70 -177 -70 -108 0 -235 69 -470 255 -278 220 -490 397
-490 410 0 7 24 49 53 94 l53 82 265 -189 c409 -292 510 -358 554 -365 184
-31 325 59 356 227 17 94 -13 200 -75 258 -19 18 -112 88 -691 522 -169 126
-206 145 -380 192 -101 27 -282 39 -354 24z"/>
<path d="M2995 3500 c-45 -23 -193 -133 -309 -228 -53 -44 -76 -69 -76 -85 0
-12 23 -48 53 -82 131 -151 156 -198 157 -289 0 -46 -7 -75 -32 -128 -17 -37
-28 -71 -25 -75 9 -8 49 21 267 192 324 255 354 288 366 404 13 115 -39 222
-133 277 -40 24 -60 29 -138 32 -76 3 -96 0 -130 -18z"/>
<path d="M3445 2875 c-82 -44 -516 -380 -612 -474 -67 -66 -78 -92 -78 -201 0
-86 3 -100 28 -142 78 -134 253 -185 385 -113 49 27 462 346 568 440 84 74
104 118 104 226 -1 174 -95 275 -269 286 -69 4 -81 2 -126 -22z"/>
<path d="M3705 2111 c-41 -21 -144 -99 -397 -299 -79 -61 -165 -129 -191 -150
-71 -55 -102 -124 -102 -227 0 -63 5 -89 23 -122 65 -124 205 -187 333 -149
42 12 99 49 249 162 359 271 426 328 454 387 72 147 20 318 -118 389 -61 32
-197 37 -251 9z"/>
</g>
</svg>
