<?xml version="1.0" standalone="no"?>
<!DOCTYPE svg PUBLIC "-//W3C//DTD SVG 20010904//EN"
 "http://www.w3.org/TR/2001/REC-SVG-20010904/DTD/svg10.dtd">
<svg version="1.0" xmlns="http://www.w3.org/2000/svg"
 width="512.000000pt" height="512.000000pt" viewBox="0 0 512.000000 512.000000"
 preserveAspectRatio="xMidYMid meet">
<metadata>
Created by potrace 1.15, written by Peter Selinger 2001-2017
</metadata>
<g transform="translate(0.000000,512.000000) scale(0.100000,-0.100000)"
fill="#000000" stroke="none">
<path d="M2878 4244 c-49 -35 -82 -103 -74 -148 15 -79 91 -147 251 -225 192
-94 348 -126 574 -118 131 4 170 9 246 32 50 15 96 28 104 29 8 0 22 -24 36
-64 50 -146 123 -259 243 -371 87 -82 223 -160 348 -199 l71 -23 -23 -81 c-38
-137 -47 -205 -48 -366 -1 -268 59 -476 187 -645 52 -69 87 -93 150 -101 37
-5 53 -2 82 16 94 58 111 151 48 267 -116 216 -127 256 -127 463 0 187 8 225
100 427 83 182 85 231 16 305 -30 32 -42 35 -222 47 -129 10 -138 12 -218 51
-106 53 -201 145 -257 251 l-40 74 -5 161 c-6 182 -9 190 -85 225 -74 34 -108
27 -276 -59 -85 -43 -178 -83 -207 -90 -30 -7 -109 -12 -176 -12 -163 0 -242
21 -422 110 -165 82 -212 90 -276 44z"/>
<path d="M1145 3840 c-80 -21 -310 -104 -500 -180 -269 -107 -557 -259 -609
-321 -49 -58 -32 -157 87 -500 75 -215 101 -277 119 -284 7 -3 62 -11 121 -20
252 -35 524 -114 726 -211 118 -56 261 -145 296 -184 17 -19 9 -17 -55 13
-148 67 -331 122 -505 152 -111 19 -493 31 -515 16 -23 -16 -20 -365 4 -481
38 -183 109 -367 168 -433 l33 -36 125 15 c162 19 384 64 535 108 300 87 919
308 1365 486 614 246 930 403 1188 594 128 94 397 359 408 400 11 43 -72 201
-144 275 -114 116 -272 162 -448 130 -69 -13 -141 -45 -280 -128 -111 -66
-193 -97 -278 -107 l-56 -7 0 -111 c0 -61 -7 -142 -15 -179 -16 -75 -70 -195
-109 -242 l-25 -30 -1 46 c0 61 -33 240 -70 386 -52 204 -102 277 -204 305
-37 10 -69 9 -183 -6 -76 -10 -145 -19 -154 -20 -37 -7 -236 15 -311 35 -249
63 -324 129 -499 443 -58 104 -80 112 -214 76z m215 -335 c56 -29 60 -113 8
-149 -49 -35 -118 -5 -134 59 -8 31 18 72 57 92 31 16 34 16 69 -2z m329 -291
c25 -21 31 -33 31 -65 0 -83 -83 -118 -141 -60 -45 45 -37 105 19 135 39 21
56 19 91 -10z m802 -93 c20 -20 29 -39 29 -61 0 -41 -47 -90 -86 -90 -41 0
-84 45 -84 88 0 42 46 92 85 92 16 0 38 -12 56 -29z m-427 -12 c39 -31 49 -64
31 -99 -16 -30 -61 -60 -90 -60 -29 0 -75 55 -75 90 0 39 47 90 83 90 13 0 36
-10 51 -21z"/>
<path d="M4055 2692 c-245 -240 -415 -365 -689 -507 -241 -125 -526 -238
-1221 -482 -487 -172 -614 -213 -1113 -363 -271 -81 -496 -151 -499 -154 -5
-5 65 -202 108 -303 l18 -43 58 0 c68 0 139 21 498 147 273 96 325 120 325
152 0 10 -13 61 -29 114 -16 54 -26 99 -22 102 9 5 133 50 361 132 l155 55
240 -7 240 -7 90 27 c322 98 868 341 1113 495 287 180 600 461 618 554 3 20
-4 60 -20 111 -27 85 -49 125 -69 125 -7 -1 -80 -67 -162 -148z"/>
</g>
</svg>
