<?xml version="1.0" standalone="no"?>
<!DOCTYPE svg PUBLIC "-//W3C//DTD SVG 20010904//EN"
 "http://www.w3.org/TR/2001/REC-SVG-20010904/DTD/svg10.dtd">
<svg version="1.0" xmlns="http://www.w3.org/2000/svg"
 width="512.000000pt" height="512.000000pt" viewBox="0 0 512.000000 512.000000"
 preserveAspectRatio="xMidYMid meet">
<metadata>
Created by potrace 1.15, written by Peter Selinger 2001-2017
</metadata>
<g transform="translate(0.000000,512.000000) scale(0.100000,-0.100000)"
fill="#000000" stroke="none">
<path d="M2216 5100 c-329 -38 -722 -182 -1027 -377 -598 -381 -1015 -1002
-1146 -1703 -26 -142 -26 -770 0 -915 94 -513 349 -998 717 -1365 406 -403
971 -673 1505 -719 154 -14 457 -14 610 0 436 38 909 232 1285 527 119 94 335
310 421 422 291 378 474 812 520 1231 16 145 6 739 -15 841 -48 248 -117 447
-231 673 -137 271 -291 481 -501 685 -276 268 -593 462 -959 588 -277 95 -392
113 -780 117 -176 2 -356 0 -399 -5z m114 -612 c0 -2 -7 -21 -15 -43 -17 -49
-19 -98 -4 -166 20 -94 127 -183 236 -195 103 -12 242 76 271 172 15 52 16
151 1 193 -6 18 -9 35 -5 38 3 3 56 -4 118 -17 717 -142 1307 -685 1507 -1385
24 -85 65 -275 60 -280 -2 -2 -29 3 -59 11 -60 16 -142 12 -196 -11 -39 -16
-100 -79 -126 -129 -29 -56 -34 -133 -14 -194 22 -65 92 -144 148 -167 51 -21
148 -23 201 -6 21 7 40 11 43 8 10 -10 -40 -230 -81 -353 -94 -286 -242 -529
-454 -748 -58 -59 -140 -135 -181 -169 -239 -194 -546 -337 -848 -397 -62 -12
-116 -20 -119 -17 -3 3 0 20 6 38 16 47 14 163 -5 207 -33 80 -132 149 -228
159 -99 10 -225 -64 -262 -154 -24 -56 -28 -151 -10 -202 9 -24 14 -46 12 -48
-7 -7 -124 16 -246 48 -734 194 -1297 807 -1430 1557 -7 39 -11 74 -8 77 3 3
18 1 34 -6 52 -20 166 -15 217 10 124 60 185 220 130 342 -59 131 -195 196
-328 155 -27 -8 -51 -13 -54 -11 -12 13 41 245 90 387 135 397 421 761 784
998 111 72 320 173 446 215 137 45 370 97 369 83z"/>
<path d="M3260 3439 c-184 -99 -450 -242 -590 -318 -140 -76 -294 -159 -342
-185 l-87 -47 -52 -97 c-29 -53 -93 -171 -142 -262 -197 -361 -537 -1005 -537
-1017 0 -7 4 -13 9 -13 9 0 742 389 1021 542 85 46 200 109 256 138 l101 53
53 101 c30 56 104 193 165 306 145 266 502 940 511 963 4 12 1 17 -12 16 -11
-1 -170 -82 -354 -180z m-581 -676 c129 -66 162 -239 66 -350 -94 -111 -274
-110 -359 2 -107 140 -43 319 134 376 40 13 99 3 159 -28z"/>
</g>
</svg>
