<?xml version="1.0" standalone="no"?>
<!DOCTYPE svg PUBLIC "-//W3C//DTD SVG 20010904//EN"
 "http://www.w3.org/TR/2001/REC-SVG-20010904/DTD/svg10.dtd">
<svg version="1.0" xmlns="http://www.w3.org/2000/svg"
 width="512.000000pt" height="512.000000pt" viewBox="0 0 512.000000 512.000000"
 preserveAspectRatio="xMidYMid meet">
<metadata>
Created by potrace 1.15, written by Peter Selinger 2001-2017
</metadata>
<g transform="translate(0.000000,512.000000) scale(0.100000,-0.100000)"
fill="#000000" stroke="none">
<path d="M1950 5099 c-47 -5 -146 -18 -220 -29 -74 -12 -169 -25 -211 -30 -41
-5 -122 -21 -180 -35 -57 -15 -132 -33 -165 -40 -34 -8 -90 -24 -125 -38 -35
-13 -82 -29 -104 -37 -63 -20 -296 -138 -345 -175 -106 -80 -209 -179 -210
-201 0 -6 -9 -19 -20 -29 -10 -9 -27 -37 -36 -60 -14 -38 -15 -89 -11 -452 3
-277 10 -451 21 -543 8 -74 23 -200 31 -280 9 -80 30 -228 47 -330 17 -102 34
-210 38 -240 4 -30 22 -109 39 -174 17 -65 31 -126 31 -135 0 -22 65 -248 102
-351 16 -47 33 -98 38 -115 20 -79 124 -329 187 -450 11 -22 26 -51 32 -65 25
-57 148 -268 171 -295 10 -11 24 -32 31 -47 33 -63 169 -231 294 -360 106
-110 327 -298 351 -298 4 0 21 -11 38 -24 63 -48 306 -165 396 -192 25 -7 83
-24 129 -38 76 -24 99 -26 255 -26 162 0 176 2 271 31 55 17 114 34 130 38 73
20 284 124 372 183 23 15 44 28 47 28 9 0 123 88 201 154 115 99 257 249 347
368 93 125 108 145 108 155 0 6 7 16 15 23 8 7 35 47 61 89 145 240 245 455
364 786 61 169 172 593 190 722 5 38 21 129 35 203 14 74 30 180 35 235 5 55
16 150 24 210 34 251 46 461 46 810 l0 350 -25 40 c-13 22 -31 54 -40 70 -18
32 -171 185 -185 185 -5 0 -22 11 -39 25 -52 44 -300 161 -441 208 -144 48
-418 117 -461 117 -15 0 -80 9 -145 20 -261 43 -387 50 -921 49 -279 -1 -546
-6 -593 -10z m140 -1848 c96 -17 188 -35 204 -39 l30 -7 -100 -101 c-101 -102
-159 -154 -170 -154 -4 0 -22 -11 -40 -25 -72 -55 -199 -106 -301 -122 -165
-25 -286 9 -458 126 -62 42 -209 171 -252 221 l-32 37 52 16 c29 9 111 30 182
46 72 16 139 32 150 35 11 2 142 3 290 2 256 -2 279 -4 445 -35z m1850 -4
c174 -44 210 -56 210 -67 0 -17 -208 -205 -278 -251 -41 -27 -76 -49 -79 -49
-2 0 -30 -15 -62 -33 -119 -70 -325 -69 -478 2 -66 31 -172 96 -223 136 -47
37 -210 203 -210 214 0 6 10 12 23 15 138 25 323 58 367 66 30 5 174 7 320 6
l265 -3 145 -36z m-2387 -1358 c64 -36 277 -139 287 -139 4 0 34 -12 66 -26
101 -45 293 -104 368 -114 93 -12 319 -12 421 0 186 21 552 170 833 338 28 17
52 29 52 26 0 -16 -120 -228 -175 -309 -108 -160 -242 -299 -403 -422 -113
-86 -322 -161 -472 -170 -122 -7 -292 26 -385 74 -16 8 -52 27 -80 41 -133 69
-311 229 -421 377 -32 44 -63 88 -69 97 -5 10 -22 34 -36 55 -49 72 -92 145
-121 205 l-28 59 55 -31 c31 -17 79 -45 108 -61z"/>
</g>
</svg>
