<?xml version="1.0" standalone="no"?>
<!DOCTYPE svg PUBLIC "-//W3C//DTD SVG 20010904//EN"
 "http://www.w3.org/TR/2001/REC-SVG-20010904/DTD/svg10.dtd">
<svg version="1.0" xmlns="http://www.w3.org/2000/svg"
 width="512.000000pt" height="512.000000pt" viewBox="0 0 512.000000 512.000000"
 preserveAspectRatio="xMidYMid meet">
<metadata>
Created by potrace 1.15, written by Peter Selinger 2001-2017
</metadata>
<g transform="translate(0.000000,512.000000) scale(0.100000,-0.100000)"
fill="#000000" stroke="none">
<path d="M2285 5104 c-16 -2 -73 -9 -125 -15 -194 -22 -420 -95 -577 -187
-312 -182 -489 -435 -564 -810 -17 -83 -22 -157 -26 -332 l-5 -225 102 -38
c57 -21 144 -50 194 -64 50 -14 132 -38 181 -53 235 -73 498 -134 725 -167
176 -25 574 -25 750 0 294 43 741 160 1061 279 l137 50 7 104 c30 439 -95 809
-361 1070 -213 210 -522 344 -886 383 -88 10 -540 13 -613 5z"/>
<path d="M4400 3320 c-47 -9 -236 -67 -421 -128 -364 -120 -462 -147 -669
-186 -213 -40 -395 -57 -676 -63 -357 -8 -615 12 -949 72 -200 37 -288 62
-675 193 l-345 117 -115 0 c-111 0 -118 -1 -183 -33 -155 -77 -300 -260 -337
-425 -19 -84 -8 -268 20 -342 84 -223 288 -382 635 -496 70 -23 140 -42 157
-43 30 -1 31 1 44 62 42 205 285 365 664 441 487 97 1435 104 1911 15 443 -82
699 -231 750 -434 15 -60 19 -65 46 -68 42 -4 316 88 425 143 123 62 171 96
259 185 59 59 86 97 120 165 l44 88 0 162 0 162 -44 89 c-36 72 -60 105 -127
170 -158 158 -312 202 -534 154z"/>
<path d="M2408 2114 c-74 -34 -78 -57 -9 -48 63 8 131 -22 166 -74 36 -54 35
-135 -2 -185 -74 -97 -199 -98 -275 -2 -17 22 -23 45 -26 97 -3 37 -8 68 -13
68 -15 0 -37 -42 -54 -104 -50 -174 31 -357 198 -447 60 -33 65 -34 177 -34
104 1 120 3 165 27 157 82 240 242 213 413 -12 85 -49 154 -113 214 -81 77
-127 94 -260 98 -102 3 -114 2 -167 -23z"/>
<path d="M1355 1340 c-57 -31 -112 -87 -137 -139 -28 -58 -30 -179 -4 -266 27
-92 92 -214 161 -307 81 -108 255 -275 375 -360 167 -119 391 -218 554 -247
94 -17 473 -14 561 4 149 31 348 125 515 243 110 78 304 266 377 366 113 154
183 325 183 448 0 100 -16 145 -72 200 -59 58 -100 72 -192 66 -85 -6 -108
-16 -359 -170 -373 -227 -489 -270 -742 -271 -125 -1 -163 3 -230 21 -115 32
-272 113 -488 251 -259 167 -274 174 -377 178 -73 4 -91 1 -125 -17z m540
-586 c119 -69 263 -129 383 -161 86 -23 117 -25 282 -26 143 -1 204 3 270 17
127 27 246 69 360 126 90 45 137 73 303 177 20 13 37 21 37 19 0 -16 -168
-212 -226 -262 -377 -332 -748 -402 -1153 -218 -112 51 -289 174 -378 263 -66
65 -203 245 -203 265 0 3 53 -29 118 -71 64 -42 158 -100 207 -129z"/>
</g>
</svg>
