<?xml version="1.0" standalone="no"?>
<!DOCTYPE svg PUBLIC "-//W3C//DTD SVG 20010904//EN"
 "http://www.w3.org/TR/2001/REC-SVG-20010904/DTD/svg10.dtd">
<svg version="1.0" xmlns="http://www.w3.org/2000/svg"
 width="512.000000pt" height="512.000000pt" viewBox="0 0 512.000000 512.000000"
 preserveAspectRatio="xMidYMid meet">
<metadata>
Created by potrace 1.15, written by Peter Selinger 2001-2017
</metadata>
<g transform="translate(0.000000,512.000000) scale(0.100000,-0.100000)"
fill="#000000" stroke="none">
<path d="M540 4407 c-58 -17 -185 -155 -256 -277 -161 -275 -293 -696 -255
-813 18 -54 54 -74 167 -92 159 -26 213 -71 236 -195 9 -46 9 -90 1 -174 -13
-125 -28 -173 -146 -447 -138 -323 -206 -526 -249 -743 -30 -151 -33 -504 -5
-606 43 -158 137 -293 239 -344 l52 -26 581 0 582 0 39 29 c119 85 180 230
233 552 34 201 76 518 86 644 3 44 8 90 10 101 5 21 8 21 402 28 441 8 492 14
610 70 221 105 378 289 452 531 25 80 40 248 41 441 l0 131 137 6 c75 4 396 7
713 7 l577 0 46 31 c42 28 77 80 100 150 3 9 20 19 38 23 40 8 95 49 120 90
17 28 19 53 19 304 0 227 -3 278 -15 303 -16 30 -104 93 -140 100 -13 3 -25
18 -32 42 -18 55 -40 83 -91 117 l-45 30 -2106 -1 c-1467 -1 -2117 -4 -2141
-12z m2396 -1414 c-8 -226 -8 -227 -38 -287 -40 -80 -136 -179 -207 -214 l-56
-27 -373 -3 -373 -4 6 69 c11 125 26 268 32 290 5 21 8 20 61 -23 104 -85 236
-134 362 -136 83 -1 124 14 158 57 55 70 34 123 -73 190 -111 69 -174 153
-175 232 0 28 5 33 43 47 75 29 128 34 386 35 l254 1 -7 -227z"/>
</g>
</svg>
