<?xml version="1.0" standalone="no"?>
<!DOCTYPE svg PUBLIC "-//W3C//DTD SVG 20010904//EN"
 "http://www.w3.org/TR/2001/REC-SVG-20010904/DTD/svg10.dtd">
<svg version="1.0" xmlns="http://www.w3.org/2000/svg"
 width="512.000000pt" height="512.000000pt" viewBox="0 0 512.000000 512.000000"
 preserveAspectRatio="xMidYMid meet">
<metadata>
Created by potrace 1.15, written by Peter Selinger 2001-2017
</metadata>
<g transform="translate(0.000000,512.000000) scale(0.100000,-0.100000)"
fill="#000000" stroke="none">
<path d="M802 4779 c-261 -46 -494 -210 -633 -445 -101 -171 -128 -275 -129
-500 0 -166 18 -249 85 -391 70 -148 143 -246 251 -333 l66 -53 -60 -22 c-170
-62 -305 -197 -352 -354 -20 -64 -20 -89 -18 -1017 l3 -951 43 -87 c57 -114
146 -205 256 -261 l79 -40 1671 0 1671 0 79 38 c61 29 96 55 155 115 121 123
157 211 167 407 3 61 7 129 10 153 l5 42 98 0 c152 0 176 -13 366 -190 190
-177 205 -185 383 -196 l112 -7 0 993 0 992 -129 -4 -129 -3 -68 -47 c-38 -26
-125 -97 -194 -158 -164 -146 -194 -161 -331 -168 l-107 -5 -6 54 c-3 30 -8
102 -11 161 -3 58 -12 130 -21 160 -47 162 -208 325 -371 377 l-52 17 56 44
c123 98 257 291 307 443 66 199 58 457 -20 656 -66 166 -200 335 -343 431 -81
54 -208 113 -291 135 -95 24 -332 31 -440 12 -235 -41 -478 -203 -607 -404
-156 -245 -194 -553 -103 -837 48 -148 120 -258 258 -393 l73 -73 -512 0 -511
0 70 65 c128 118 209 245 269 420 l37 110 0 175 c-1 149 -4 187 -23 255 -26
92 -85 223 -131 290 -49 72 -157 182 -226 231 -74 53 -226 126 -309 149 -72
19 -362 29 -443 14z"/>
</g>
</svg>
