<?xml version="1.0" standalone="no"?>
<!DOCTYPE svg PUBLIC "-//W3C//DTD SVG 20010904//EN"
 "http://www.w3.org/TR/2001/REC-SVG-20010904/DTD/svg10.dtd">
<svg version="1.0" xmlns="http://www.w3.org/2000/svg"
 width="512.000000pt" height="512.000000pt" viewBox="0 0 512.000000 512.000000"
 preserveAspectRatio="xMidYMid meet">
<metadata>
Created by potrace 1.15, written by Peter Selinger 2001-2017
</metadata>
<g transform="translate(0.000000,512.000000) scale(0.100000,-0.100000)"
fill="#000000" stroke="none">
<path d="M1950 5099 c-47 -5 -146 -18 -220 -29 -74 -12 -169 -25 -211 -30 -41
-5 -122 -21 -180 -35 -57 -15 -132 -33 -165 -40 -34 -8 -90 -24 -125 -38 -35
-13 -82 -29 -104 -37 -63 -20 -296 -138 -345 -175 -106 -80 -209 -179 -210
-201 0 -6 -9 -19 -20 -29 -10 -9 -27 -37 -36 -60 -14 -38 -15 -89 -11 -452 3
-277 10 -451 21 -543 8 -74 23 -200 31 -280 9 -80 30 -228 47 -330 17 -102 34
-210 38 -240 4 -30 22 -109 39 -174 17 -65 31 -126 31 -135 0 -22 65 -248 102
-351 16 -47 33 -98 38 -115 20 -79 124 -329 187 -450 11 -22 26 -51 32 -65 25
-57 148 -268 171 -295 10 -11 24 -32 31 -47 33 -63 169 -231 294 -360 106
-110 327 -298 351 -298 4 0 21 -11 38 -24 63 -48 306 -165 396 -192 25 -7 83
-24 129 -38 76 -24 99 -26 255 -26 162 0 176 2 271 31 55 17 114 34 130 38 73
20 284 124 372 183 23 15 44 28 47 28 9 0 123 88 201 154 115 99 257 249 347
368 93 125 108 145 108 155 0 6 7 16 15 23 8 7 35 47 61 89 145 240 245 455
364 786 61 169 172 593 190 722 5 38 21 129 35 203 14 74 30 180 35 235 5 55
16 150 24 210 34 251 46 461 46 810 l0 350 -25 40 c-13 22 -31 54 -40 70 -18
32 -171 185 -185 185 -5 0 -22 11 -39 25 -52 44 -300 161 -441 208 -144 48
-418 117 -461 117 -15 0 -80 9 -145 20 -261 43 -387 50 -921 49 -279 -1 -546
-6 -593 -10z m350 -1456 c0 -40 -91 -263 -134 -332 -14 -22 -26 -43 -26 -46 0
-3 -27 -41 -60 -84 -129 -170 -296 -271 -444 -271 -155 0 -417 118 -630 283
-67 51 -63 45 -41 63 19 14 236 122 315 157 99 42 345 121 460 147 97 21 427
80 470 83 25 2 55 4 68 5 12 1 22 -1 22 -5z m855 -39 c261 -47 475 -101 570
-143 28 -13 70 -30 95 -38 68 -23 346 -159 355 -174 5 -7 1 -17 -10 -25 -10
-8 -31 -25 -47 -39 -15 -14 -31 -25 -34 -25 -4 0 -21 -11 -38 -23 -104 -80
-302 -177 -420 -207 -105 -26 -176 -26 -262 4 -85 29 -149 72 -231 154 -56 58
-153 181 -153 196 0 4 -12 25 -26 47 -33 53 -109 234 -118 282 l-7 38 68 -6
c37 -4 154 -22 258 -41z m-455 -1632 c109 -28 256 -105 370 -194 48 -38 185
-178 247 -253 60 -72 153 -207 153 -221 0 -4 6 -15 14 -23 7 -9 34 -55 58
-102 l45 -86 -56 30 c-31 17 -63 36 -71 42 -30 25 -337 175 -357 175 -4 0 -40
13 -79 29 -40 16 -101 37 -135 46 -245 66 -237 65 -399 65 -160 -1 -158 0
-408 -65 -140 -36 -388 -149 -627 -285 -27 -16 -53 -29 -58 -29 -8 -1 64 137
94 181 11 14 19 29 19 32 0 8 67 106 130 191 47 64 212 233 270 278 97 74 284
177 322 177 7 0 40 9 73 20 51 17 80 19 190 15 82 -2 157 -11 205 -23z"/>
</g>
</svg>
