<?xml version="1.0" standalone="no"?>
<!DOCTYPE svg PUBLIC "-//W3C//DTD SVG 20010904//EN"
 "http://www.w3.org/TR/2001/REC-SVG-20010904/DTD/svg10.dtd">
<svg version="1.0" xmlns="http://www.w3.org/2000/svg"
 width="512.000000pt" height="512.000000pt" viewBox="0 0 512.000000 512.000000"
 preserveAspectRatio="xMidYMid meet">
<metadata>
Created by potrace 1.15, written by Peter Selinger 2001-2017
</metadata>
<g transform="translate(0.000000,512.000000) scale(0.100000,-0.100000)"
fill="#000000" stroke="none">
<path d="M3567 5058 c-38 -107 -289 -744 -295 -750 -5 -5 -174 74 -377 173
-366 179 -405 197 -405 185 0 -11 128 -322 230 -555 55 -129 97 -237 93 -242
-4 -4 -172 -62 -373 -130 -399 -134 -430 -145 -430 -158 0 -10 20 -18 430
-176 168 -64 309 -121 314 -125 5 -5 -576 -595 -1325 -1347 -734 -736 -1352
-1360 -1374 -1386 -37 -46 -39 -53 -43 -130 -6 -126 5 -154 106 -260 48 -49
105 -103 126 -118 37 -28 44 -29 152 -29 l112 0 49 38 c68 55 1335 1309 1940
1921 543 550 752 750 764 729 4 -7 45 -126 93 -263 88 -260 139 -399 156 -425
6 -10 12 -11 18 -5 6 6 54 125 107 265 127 334 195 503 205 513 4 5 102 -36
216 -91 567 -271 574 -274 574 -256 0 3 -74 175 -165 381 -91 206 -165 381
-165 388 0 17 83 48 483 181 180 60 327 114 327 120 0 13 13 7 -420 175 -184
71 -347 134 -362 140 l-27 11 189 379 c105 208 190 386 190 394 0 8 -4 15 -8
15 -11 0 -132 -52 -474 -204 -169 -75 -311 -136 -315 -136 -5 0 -69 185 -143
410 -77 234 -139 410 -146 410 -7 0 -19 -19 -27 -42z m-115 -1616 c43 -43 78
-86 78 -95 0 -17 -466 -500 -879 -912 l-241 -240 -102 103 -103 102 260 261
c457 458 873 859 891 859 10 0 53 -35 96 -78z"/>
<path d="M3249 1637 c-9 -9 -36 -64 -59 -124 -24 -59 -50 -116 -59 -125 -9 -9
-70 -38 -136 -64 -66 -26 -124 -51 -130 -56 -14 -12 0 -20 135 -74 63 -25 120
-50 127 -55 6 -6 23 -40 38 -77 51 -128 78 -182 91 -182 16 0 30 26 79 150 20
52 40 98 44 103 4 4 61 30 126 57 128 53 145 64 129 80 -6 6 -64 33 -129 60
-65 27 -122 55 -127 62 -4 7 -22 47 -39 88 -70 170 -73 175 -90 157z"/>
<path d="M4432 1244 c-7 -14 -44 -105 -83 -202 -39 -97 -79 -184 -89 -193 -10
-8 -106 -51 -214 -94 -146 -59 -196 -83 -194 -95 2 -9 78 -45 207 -96 111 -45
206 -86 210 -90 5 -5 25 -52 45 -104 71 -180 128 -310 136 -310 14 0 20 13
105 223 l80 197 205 83 c133 53 206 88 208 98 2 12 -47 36 -205 100 l-207 84
-79 195 c-43 107 -81 203 -84 213 -8 25 -28 21 -41 -9z"/>
</g>
</svg>
