<?xml version="1.0" standalone="no"?>
<!DOCTYPE svg PUBLIC "-//W3C//DTD SVG 20010904//EN"
 "http://www.w3.org/TR/2001/REC-SVG-20010904/DTD/svg10.dtd">
<svg version="1.0" xmlns="http://www.w3.org/2000/svg"
 width="512.000000pt" height="512.000000pt" viewBox="0 0 512.000000 512.000000"
 preserveAspectRatio="xMidYMid meet">
<metadata>
Created by potrace 1.15, written by Peter Selinger 2001-2017
</metadata>
<g transform="translate(0.000000,512.000000) scale(0.100000,-0.100000)"
fill="#000000" stroke="none">
<path d="M4985 5084 c-16 -14 -95 -75 -174 -134 -122 -92 -164 -117 -280 -168
-149 -65 -214 -85 -339 -103 l-84 -12 -1837 -1836 c-1873 -1871 -2069 -2069
-2140 -2164 -40 -53 -41 -55 -41 -136 0 -64 5 -91 21 -124 20 -40 273 -307
349 -370 l35 -29 155 5 c131 4 167 8 230 30 152 51 284 113 520 245 153 85
164 93 315 218 131 109 187 168 321 340 134 171 166 217 207 294 19 36 53 97
75 135 49 87 125 261 147 339 l17 59 222 -222 c121 -121 226 -221 232 -221 6
0 44 35 85 78 167 176 362 384 462 495 59 64 107 116 107 114 0 -2 -13 -43
-30 -91 -52 -155 -50 -317 6 -397 32 -47 101 -94 149 -103 19 -4 54 -2 77 5
151 40 224 242 154 424 -75 193 -86 230 -86 296 0 140 39 222 284 589 20 30
83 125 140 210 57 85 114 175 128 200 14 25 69 122 123 215 195 338 386 803
460 1121 41 176 45 217 45 472 0 275 0 273 -55 226z m-690 -656 c4 -24 18 -97
31 -163 57 -284 69 -458 37 -505 -39 -57 -65 -54 -225 28 -114 57 -140 67
-185 67 -43 0 -57 -5 -78 -25 -44 -44 -51 -111 -36 -339 14 -216 12 -256 -25
-493 -30 -194 -123 -516 -186 -643 -31 -62 -134 -201 -219 -295 -42 -47 -123
-137 -179 -200 -57 -63 -147 -161 -201 -217 l-99 -102 -410 411 -410 411 797
794 c439 437 918 911 1065 1054 294 286 310 297 323 217z"/>
<path d="M3423 1188 c-42 -52 -139 -289 -153 -372 -19 -116 22 -226 97 -261
47 -22 133 -16 171 12 53 39 67 79 67 183 0 87 -4 104 -41 200 -51 131 -106
243 -120 247 -6 2 -16 -2 -21 -9z"/>
</g>
</svg>
