<?xml version="1.0" standalone="no"?>
<!DOCTYPE svg PUBLIC "-//W3C//DTD SVG 20010904//EN"
 "http://www.w3.org/TR/2001/REC-SVG-20010904/DTD/svg10.dtd">
<svg version="1.0" xmlns="http://www.w3.org/2000/svg"
 width="512.000000pt" height="512.000000pt" viewBox="0 0 512.000000 512.000000"
 preserveAspectRatio="xMidYMid meet">
<metadata>
Created by potrace 1.15, written by Peter Selinger 2001-2017
</metadata>
<g transform="translate(0.000000,512.000000) scale(0.100000,-0.100000)"
fill="#000000" stroke="none">
<path d="M2428 5081 c-26 -16 -51 -39 -57 -50 -8 -14 -11 -528 -11 -1713 0
-931 -3 -1717 -6 -1745 -5 -35 -10 -50 -18 -45 -6 4 -24 12 -41 18 -153 58
-172 63 -295 75 -247 24 -454 -17 -703 -142 -182 -90 -329 -240 -407 -413 -50
-110 -70 -219 -70 -372 0 -163 15 -218 90 -329 112 -164 303 -283 545 -340 87
-20 424 -21 505 -1 193 48 379 148 504 272 48 48 111 123 145 174 37 54 101
180 101 198 0 5 11 36 25 70 l25 62 0 1102 c0 607 3 1120 6 1140 l7 38 41 -25
c42 -26 168 -88 246 -123 25 -11 81 -35 125 -55 44 -20 114 -49 155 -65 182
-72 352 -157 433 -216 77 -56 104 -102 128 -226 11 -54 19 -71 54 -105 97 -94
238 -81 313 29 l32 48 0 578 c0 556 -1 580 -21 645 -72 236 -237 371 -722 594
-49 23 -91 41 -93 41 -2 0 -26 10 -52 21 -26 12 -63 28 -82 37 -55 23 -260
126 -307 153 -133 77 -231 189 -252 290 -6 27 -11 112 -11 188 0 137 0 137
-27 163 -50 46 -86 58 -176 58 -75 0 -88 -3 -129 -29z"/>
</g>
</svg>
