<?xml version="1.0" standalone="no"?>
<!DOCTYPE svg PUBLIC "-//W3C//DTD SVG 20010904//EN"
 "http://www.w3.org/TR/2001/REC-SVG-20010904/DTD/svg10.dtd">
<svg version="1.0" xmlns="http://www.w3.org/2000/svg"
 width="512.000000pt" height="512.000000pt" viewBox="0 0 512.000000 512.000000"
 preserveAspectRatio="xMidYMid meet">
<metadata>
Created by potrace 1.15, written by Peter Selinger 2001-2017
</metadata>
<g transform="translate(0.000000,512.000000) scale(0.100000,-0.100000)"
fill="#000000" stroke="none">
<path d="M945 4433 c-160 -28 -339 -102 -460 -188 -71 -50 -207 -187 -266
-265 -56 -76 -133 -237 -164 -344 -37 -130 -49 -255 -42 -456 8 -252 42 -391
148 -602 170 -338 390 -574 1064 -1137 389 -325 491 -416 665 -592 85 -86 169
-164 187 -173 38 -19 173 -22 206 -4 12 6 127 114 256 240 128 126 238 227
245 225 6 -2 32 -53 57 -114 57 -137 76 -168 139 -227 91 -85 209 -121 342
-104 31 4 112 30 180 57 68 27 222 81 343 121 489 160 622 215 793 326 247
161 423 426 463 696 15 103 6 332 -16 413 -65 236 -234 435 -473 558 -90 47
-206 87 -249 87 -24 0 -24 1 -16 63 15 119 9 414 -11 512 -48 234 -139 413
-290 573 -170 180 -392 297 -641 337 -105 17 -364 20 -451 4 -221 -39 -450
-168 -692 -392 -65 -60 -76 -66 -92 -55 -10 7 -60 50 -111 96 -208 184 -445
313 -638 348 -100 18 -372 16 -476 -3z m2451 -1418 c213 -50 299 -155 371
-450 32 -127 39 -145 56 -145 11 0 78 36 149 81 161 100 206 120 288 126 119
9 266 -62 382 -184 114 -121 162 -232 162 -383 0 -101 -15 -170 -60 -268 -92
-202 -239 -333 -497 -442 -61 -26 -251 -93 -422 -150 -170 -56 -365 -124 -432
-151 -66 -27 -132 -49 -145 -49 -37 0 -63 36 -117 156 -26 60 -123 262 -213
449 -228 468 -254 540 -265 735 -5 87 -2 119 16 190 61 245 225 428 432 484
70 19 218 20 295 1z"/>
</g>
</svg>
