<?xml version="1.0" standalone="no"?>
<!DOCTYPE svg PUBLIC "-//W3C//DTD SVG 20010904//EN"
 "http://www.w3.org/TR/2001/REC-SVG-20010904/DTD/svg10.dtd">
<svg version="1.0" xmlns="http://www.w3.org/2000/svg"
 width="512.000000pt" height="512.000000pt" viewBox="0 0 512.000000 512.000000"
 preserveAspectRatio="xMidYMid meet">
<metadata>
Created by potrace 1.15, written by Peter Selinger 2001-2017
</metadata>
<g transform="translate(0.000000,512.000000) scale(0.100000,-0.100000)"
fill="#000000" stroke="none">
<path d="M1400 5103 c-316 -52 -558 -233 -691 -517 -95 -204 -121 -476 -74
-787 l14 -94 -72 -73 -73 -73 -106 -3 c-96 -2 -112 -5 -169 -33 -71 -35 -136
-95 -173 -157 -55 -95 -61 -289 -12 -391 31 -62 115 -143 190 -183 47 -25 60
-27 166 -27 105 0 120 2 171 28 67 33 153 115 184 177 26 53 45 132 46 198 l0
47 17 -35 c202 -437 404 -750 718 -1118 l106 -122 -267 -273 -267 -272 -112
-6 c-98 -5 -119 -9 -178 -37 -83 -40 -167 -129 -200 -211 -32 -80 -32 -223 1
-304 32 -81 115 -168 199 -209 62 -31 73 -33 172 -33 97 0 110 2 172 32 84 39
155 109 193 188 25 53 30 74 33 171 l4 111 273 273 273 273 123 -108 c199
-173 489 -383 711 -514 85 -50 336 -177 397 -202 l35 -13 -85 -12 c-46 -7
-106 -23 -134 -35 -65 -29 -154 -120 -191 -196 -26 -53 -29 -68 -29 -163 0
-95 3 -110 28 -163 40 -80 124 -169 189 -198 47 -21 68 -24 178 -24 121 0 127
1 192 33 77 38 134 97 175 180 22 46 27 71 31 162 l4 108 74 73 73 72 118 -16
c239 -34 516 -18 678 40 289 103 472 294 571 593 27 83 28 91 32 357 2 171 -1
299 -8 345 -25 165 -102 420 -184 608 l-41 95 22 90 c46 186 53 436 17 657
-113 709 -597 1255 -1287 1452 -177 51 -256 61 -492 60 -192 0 -233 -3 -320
-23 -169 -38 -160 -39 -281 14 -212 92 -451 164 -614 184 -80 10 -466 13 -520
4z m2017 -599 c254 -57 467 -163 656 -328 220 -193 368 -452 439 -767 20 -89
23 -130 22 -289 0 -166 -3 -195 -27 -282 -48 -180 -136 -305 -282 -402 -99
-66 -167 -89 -281 -94 -161 -7 -292 34 -507 158 -158 90 -315 218 -513 415
-259 259 -365 397 -474 620 -81 165 -103 257 -98 407 4 113 5 119 46 200 67
134 168 240 282 298 134 67 243 88 454 89 147 1 184 -2 283 -25z"/>
</g>
</svg>
