<?xml version="1.0" standalone="no"?>
<!DOCTYPE svg PUBLIC "-//W3C//DTD SVG 20010904//EN"
 "http://www.w3.org/TR/2001/REC-SVG-20010904/DTD/svg10.dtd">
<svg version="1.0" xmlns="http://www.w3.org/2000/svg"
 width="512.000000pt" height="512.000000pt" viewBox="0 0 512.000000 512.000000"
 preserveAspectRatio="xMidYMid meet">
<metadata>
Created by potrace 1.15, written by Peter Selinger 2001-2017
</metadata>
<g transform="translate(0.000000,512.000000) scale(0.100000,-0.100000)"
fill="#000000" stroke="none">
<path d="M2155 5091 c-821 -136 -1496 -660 -1862 -1446 -114 -243 -178 -456
-230 -755 -27 -155 -27 -786 0 -907 38 -173 103 -334 183 -454 60 -91 187
-225 274 -289 199 -147 515 -250 770 -250 l88 0 5 -302 c4 -266 7 -313 26
-386 22 -87 75 -211 111 -262 l21 -30 1024 0 1024 0 21 30 c35 49 90 179 112
264 18 70 21 121 25 384 l5 302 83 0 c45 0 138 9 206 21 280 47 494 149 672
318 145 139 243 294 306 488 61 187 66 233 66 618 0 383 -6 442 -75 723 -78
319 -246 679 -438 942 -200 272 -454 507 -722 667 -235 140 -442 226 -685 284
-206 48 -229 51 -570 54 -284 3 -345 1 -440 -14z m707 -406 c349 -49 730 -209
983 -413 377 -304 624 -703 756 -1220 95 -370 110 -773 39 -1033 -45 -167
-105 -274 -215 -384 -103 -103 -201 -154 -364 -190 -188 -42 -363 -48 -638
-20 l-73 8 0 -359 c-1 -413 -11 -605 -35 -687 -32 -111 -108 -176 -188 -160
-48 10 -143 109 -153 158 l-7 39 -21 -27 c-12 -14 -35 -46 -53 -70 -38 -53
-110 -92 -150 -82 -42 10 -79 41 -130 107 l-46 61 -26 -30 c-14 -17 -39 -47
-55 -68 -34 -45 -99 -76 -141 -68 -20 4 -54 31 -103 81 -40 41 -74 73 -76 71
-1 -2 -10 -23 -21 -47 -35 -82 -128 -141 -200 -128 -46 9 -106 78 -128 149
-26 84 -36 271 -37 686 l0 373 -87 -8 c-49 -5 -187 -9 -308 -9 -207 1 -226 2
-325 28 -138 36 -254 93 -331 164 -217 202 -311 518 -280 940 28 378 101 665
249 978 175 372 463 695 789 888 216 127 511 232 760 271 123 19 481 20 615 1z"/>
<path d="M1279 3367 c-129 -48 -225 -184 -264 -371 -22 -108 -22 -363 1 -454
65 -266 299 -461 618 -517 179 -31 398 -29 520 6 51 14 120 79 151 143 32 67
49 193 42 325 -5 96 -8 109 -46 185 -22 44 -67 113 -100 153 -148 177 -504
450 -670 514 -70 27 -200 35 -252 16z"/>
<path d="M3630 3362 c-114 -39 -236 -114 -415 -258 -212 -170 -333 -304 -397
-439 -27 -59 -32 -82 -36 -170 -10 -235 44 -393 156 -449 110 -55 424 -58 626
-6 278 71 456 223 537 457 39 114 44 384 9 528 -20 83 -88 213 -135 260 -65
66 -116 88 -210 92 -58 2 -95 -2 -135 -15z"/>
<path d="M2607 1760 c-14 -11 -29 -30 -32 -41 -6 -18 -8 -18 -34 10 -61 65
-123 47 -170 -51 -101 -212 -201 -494 -201 -567 0 -71 53 -111 147 -111 78 0
153 43 203 117 19 29 37 52 40 52 3 0 20 -24 38 -53 60 -95 117 -125 239 -126
41 0 58 5 82 26 29 24 31 31 31 88 0 78 -28 172 -114 391 -79 199 -106 250
-146 270 -38 20 -52 19 -83 -5z"/>
</g>
</svg>
