<?xml version="1.0" standalone="no"?>
<!DOCTYPE svg PUBLIC "-//W3C//DTD SVG 20010904//EN"
 "http://www.w3.org/TR/2001/REC-SVG-20010904/DTD/svg10.dtd">
<svg version="1.0" xmlns="http://www.w3.org/2000/svg"
 width="512.000000pt" height="512.000000pt" viewBox="0 0 512.000000 512.000000"
 preserveAspectRatio="xMidYMid meet">
<metadata>
Created by potrace 1.15, written by Peter Selinger 2001-2017
</metadata>
<g transform="translate(0.000000,512.000000) scale(0.100000,-0.100000)"
fill="#000000" stroke="none">
<path d="M2295 5089 c-94 -30 -146 -60 -203 -116 -66 -64 -103 -146 -125 -273
-21 -119 -57 -432 -57 -485 0 -22 -6 -121 -15 -220 -19 -236 -42 -692 -54
-1089 -5 -175 -11 -320 -13 -322 -2 -2 -59 -6 -126 -10 -101 -6 -129 -4 -165
10 -102 39 -121 91 -222 606 -9 47 -25 128 -36 180 -12 52 -27 127 -35 165
-35 172 -48 225 -72 298 -13 42 -36 89 -49 103 -23 25 -26 26 -137 22 -105 -3
-115 -5 -149 -30 -74 -57 -98 -155 -104 -433 -5 -197 6 -403 42 -750 8 -77 17
-167 20 -200 8 -84 33 -230 52 -295 72 -253 235 -421 461 -475 63 -15 106 -17
290 -13 120 3 225 9 235 13 15 6 17 -1 17 -86 -1 -228 53 -855 111 -1298 5
-41 8 -75 6 -77 -1 -1 -61 -10 -132 -18 -434 -53 -711 -105 -975 -183 -189
-56 -260 -82 -260 -94 0 -5 841 -9 1961 -9 1449 0 1960 3 1957 11 -8 25 -351
128 -568 173 -212 43 -434 78 -610 96 -169 18 -170 18 -170 51 0 16 9 82 19
146 67 409 112 1031 118 1641 5 424 7 463 22 457 9 -4 88 -9 177 -12 153 -6
264 4 319 27 124 52 204 110 271 196 139 179 187 413 228 1126 8 144 -24 413
-57 471 -37 66 -76 92 -166 106 -71 11 -151 -4 -179 -35 -27 -29 -88 -233
-147 -489 -9 -38 -23 -95 -30 -125 -8 -30 -24 -95 -36 -145 -44 -186 -71 -249
-123 -288 -33 -26 -40 -27 -158 -27 -68 0 -130 4 -137 9 -10 7 -16 32 -18 78
-4 87 -30 427 -44 563 -6 58 -14 154 -19 214 -20 236 -57 466 -91 564 -41 114
-106 203 -173 238 -96 49 -128 54 -365 53 -195 0 -234 -3 -286 -20z"/>
</g>
</svg>
